<svg width="32" height="32" viewBox="0 0 32 32" fill="none" xmlns="http://www.w3.org/2000/svg">
<path fill-rule="evenodd" clip-rule="evenodd" d="M0 16C0 7.16344 7.16344 0 16 0C24.8365 0 32 7.16344 32 16V18.1333C32 19.1851 31.6945 20.1688 31.1669 20.9966C30.2219 22.4794 28.56 23.4667 26.6667 23.4667C24.5941 23.4667 22.7977 22.2844 21.9149 20.5575C20.5495 22.327 18.4078 23.4667 16 23.4667C11.8763 23.4667 8.53333 20.1237 8.53333 16C8.53333 11.8763 11.8763 8.53333 16 8.53333C20.1237 8.53333 23.4667 11.8763 23.4667 16V18.1333C23.4667 19.9007 24.8994 21.3333 26.6667 21.3333C27.8007 21.3333 28.7981 20.7441 29.3679 19.85C29.6836 19.3546 29.8667 18.767 29.8667 18.1333V16C29.8667 8.34165 23.6585 2.13333 16 2.13333C8.34165 2.13333 2.13333 8.34165 2.13333 16C2.13333 23.6585 8.34165 29.8667 16 29.8667C18.9476 29.8667 21.6774 28.9483 23.9232 27.3818L25.1435 29.1315C22.5515 30.9395 19.398 32 16 32C7.16344 32 0 24.8365 0 16ZM21.3333 16C21.3333 13.0545 18.9455 10.6667 16 10.6667C13.0545 10.6667 10.6667 13.0545 10.6667 16C10.6667 18.9455 13.0545 21.3333 16 21.3333C18.9455 21.3333 21.3333 18.9455 21.3333 16Z" fill="black"/>
</svg>
