<svg width="32" height="32" viewBox="0 0 32 32" fill="none" xmlns="http://www.w3.org/2000/svg">
<path d="M16 10.6666C13.0545 10.6666 10.6667 13.0544 10.6667 16C10.6667 18.9455 13.0545 21.3333 16 21.3333C18.9455 21.3333 21.3333 18.9455 21.3333 16C21.3333 13.0544 18.9455 10.6666 16 10.6666Z" fill="black"/>
<path fill-rule="evenodd" clip-rule="evenodd" d="M9.6 0C4.29807 0 0 4.29807 0 9.6V22.4C0 27.702 4.29807 32 9.6 32H22.4C27.702 32 32 27.702 32 22.4V9.6C32 4.29807 27.702 0 22.4 0H9.6ZM8.53333 16C8.53333 11.8763 11.8763 8.53333 16 8.53333C20.1237 8.53333 23.4667 11.8763 23.4667 16C23.4667 20.1237 20.1237 23.4667 16 23.4667C11.8763 23.4667 8.53333 20.1237 8.53333 16ZM23.4667 8.53333H25.6V6.4H23.4667V8.53333Z" fill="black"/>
</svg>
