<svg width="32" height="32" viewBox="0 0 32 32" fill="none" xmlns="http://www.w3.org/2000/svg">
<path d="M5.33333 0C2.38782 0 0 2.38782 0 5.33333V9.6C0 21.9712 10.0288 32 22.4 32H26.6667C29.6122 32 32 29.6122 32 26.6667V23.7184C32 22.5065 31.3152 21.3984 30.231 20.8563L25.0771 18.2793C23.3353 17.4084 21.226 18.2821 20.6102 20.1296L19.975 22.0352C19.7336 22.7593 18.9909 23.1904 18.2424 23.0406C13.5579 22.1039 9.89621 18.4421 8.9593 13.7576C8.80962 13.0091 9.24066 12.2664 9.96474 12.025L12.3298 11.2367C13.9161 10.7079 14.8279 9.04693 14.4224 7.42475L13.1721 2.42389C12.816 0.999351 11.536 0 10.0677 0H5.33333Z" fill="black"/>
</svg>
